<svg width="273" height="331" viewBox="0 0 273 331" fill="none" xmlns="http://www.w3.org/2000/svg">
<path d="M97.5867 72.7422C97.5867 83.4816 88.8807 92.1876 78.1413 92.1876C67.4019 92.1876 58.6959 83.4816 58.6959 72.7422C58.6959 62.0028 67.4019 53.2968 78.1413 53.2968C88.8807 53.2968 97.5867 62.0028 97.5867 72.7422Z" fill="#FF5E5E"/>
<path fill-rule="evenodd" clip-rule="evenodd" d="M272.59 78.0063C272.59 120.964 237.766 155.788 194.809 155.788H155.918L155.92 175.225H155.918H233.694H253.142H272.59L253.142 214.115H155.918V253.006C155.918 295.964 121.094 330.788 78.1363 330.788C35.1787 330.788 0.354675 295.964 0.354675 253.006C0.354675 210.049 35.1787 175.225 78.1363 175.225H117.027H117.03L117.027 155.788H0.354675L19.8026 116.897H48.9682L58.6909 97.4517H97.5816L87.8589 116.897H117.027V97.4517V78.0063C117.027 35.0487 151.851 0.224701 194.809 0.224701C237.766 0.224701 272.59 35.0487 272.59 78.0063ZM194.809 116.897C216.287 116.897 233.699 99.4851 233.699 78.0063C233.699 56.5275 216.287 39.1155 194.809 39.1155C173.33 39.1155 155.918 56.5275 155.918 78.0063C155.918 99.4851 173.33 116.897 194.809 116.897ZM78.1363 291.897C99.615 291.897 117.027 274.485 117.027 253.006C117.027 231.527 99.615 214.115 78.1363 214.115C56.6575 214.115 39.2455 231.527 39.2455 253.006C39.2455 274.485 56.6575 291.897 78.1363 291.897Z" fill="#FF5E5E"/>
</svg>
